<svg width="46" height="46" viewBox="0 0 46 46" fill="none" xmlns="http://www.w3.org/2000/svg">
<path fill-rule="evenodd" clip-rule="evenodd" d="M12.0861 15C12.0479 15.0562 12 15.1704 12 15.3333V36.6667C12 36.8296 12.0479 36.9438 12.0861 37H33.9139C33.9521 36.9438 34 36.8296 34 36.6667V15.3333C34 15.1704 33.9521 15.0562 33.9139 15H12.0861ZM10.4929 13.7905C10.8159 13.3598 11.3385 13 12 13H34C34.6615 13 35.1841 13.3598 35.5071 13.7905C35.8299 14.2209 36 14.7697 36 15.3333V36.6667C36 37.2303 35.8299 37.7791 35.5071 38.2095C35.1841 38.6402 34.6615 39 34 39H12C11.3385 39 10.8159 38.6402 10.4929 38.2095C10.1701 37.7791 10 37.2303 10 36.6667V15.3333C10 14.7697 10.1701 14.2209 10.4929 13.7905Z" fill="#111820"/>
<path fill-rule="evenodd" clip-rule="evenodd" d="M23 7C21.9391 7 20.9217 7.42143 20.1716 8.17157C19.4214 8.92172 19 9.93913 19 11V18C19 18.5523 18.5523 19 18 19C17.4477 19 17 18.5523 17 18V11C17 9.4087 17.6321 7.88258 18.7574 6.75736C19.8826 5.63214 21.4087 5 23 5C24.5913 5 26.1174 5.63214 27.2426 6.75736C28.3679 7.88258 29 9.4087 29 11V18C29 18.5523 28.5523 19 28 19C27.4477 19 27 18.5523 27 18V11C27 9.93913 26.5786 8.92172 25.8284 8.17157C25.0783 7.42143 24.0609 7 23 7Z" fill="#111820"/>
<rect x="16" y="28" width="7" height="5" fill="#111820"/>
</svg>
