<svg width="32" height="32" viewBox="0 0 32 32" fill="none" xmlns="http://www.w3.org/2000/svg">
<circle cx="16" cy="16" r="11.1304" fill="white"/>
<path fill-rule="evenodd" clip-rule="evenodd" d="M19.682 20.6658C19.9537 20.9375 20.3942 20.9375 20.6658 20.6658C20.9375 20.3941 20.9375 19.9537 20.6658 19.682L16.9838 16L20.6658 12.318C20.9375 12.0463 20.9375 11.6059 20.6658 11.3342C20.3942 11.0625 19.9537 11.0625 19.682 11.3342L16 15.0162L12.318 11.3342C12.0463 11.0625 11.6059 11.0625 11.3342 11.3342C11.0625 11.6059 11.0625 12.0463 11.3342 12.318L15.0162 16L11.3342 19.682C11.0625 19.9537 11.0625 20.3941 11.3342 20.6658C11.6059 20.9375 12.0463 20.9375 12.318 20.6658L16 16.9838L19.682 20.6658Z" fill="#111820"/>
</svg>
