<svg width="36" height="27" viewBox="0 0 36 27" fill="none" xmlns="http://www.w3.org/2000/svg">
<path fill-rule="evenodd" clip-rule="evenodd" d="M24.2032 26.8175H35.1979V23.7718H24.2032V26.8175ZM0 26.8175H16.8854V23.7718H0V26.8175ZM21.4161 8.62119C21.2195 8.22722 20.9509 8.03059 20.5323 8.03059C20.1132 8.03059 19.8447 8.22722 19.6481 8.62119V17.973C19.8447 18.3666 20.1132 18.5636 20.5323 18.5636C20.9509 18.5636 21.2195 18.3666 21.4161 17.973V8.62119ZM25.9336 7.11995V19.5229C25.803 19.7691 25.6233 20.0153 25.4019 20.286C25.1802 20.5567 24.845 20.8522 24.426 21.1965C24.0069 21.5413 23.4648 21.8116 22.7746 22.0334C22.0845 22.2548 21.3454 22.3533 20.5319 22.3533C19.7186 22.3533 18.9792 22.2548 18.3135 22.0334C17.6483 21.8116 17.1061 21.5413 16.6871 21.221C16.268 20.901 15.9476 20.6059 15.7259 20.3353C15.5041 20.0646 15.327 19.7939 15.1959 19.5477V7.09515C15.327 6.84892 15.4796 6.5786 15.7014 6.30792C15.9231 6.03689 16.2439 5.74177 16.6629 5.42185C17.082 5.10192 17.6245 4.83125 18.2901 4.60982C18.9554 4.38839 19.6956 4.28954 20.5092 4.28954C21.3224 4.28954 22.0881 4.38839 22.7782 4.60982C23.4684 4.83125 24.0145 5.10192 24.4332 5.44629C24.8522 5.79102 25.1802 6.08649 25.4019 6.35717C25.6233 6.62749 25.803 6.87372 25.9336 7.11995ZM24.9289 2.84515L22.9651 0H18.1235L16.1597 2.84515V3.04573H24.9289V2.84515ZM20.5441 23.589C19.7406 23.589 19.1127 23.8651 18.6854 24.4165V26.1973C19.1376 26.7239 19.7654 27 20.5441 27C21.3231 27 21.951 26.7239 22.4031 26.1973V24.4165C21.9758 23.8651 21.348 23.589 20.5441 23.589ZM27.2067 4.74716V8.09412H29.3605V21.9744H33.8461V8.09412H36V4.74716H27.2067ZM8.11152 4.74716H13.2718V21.9744H9.07776V13.2179H8.93376L7.32456 19.3094H5.9472L4.338 13.2179H4.194V21.9744H0V4.74716H5.16024L6.57324 10.7434H6.69852L8.11152 4.74716Z" fill="black"/>
</svg>
