<svg width="60" height="45" viewBox="0 0 60 45" fill="none" xmlns="http://www.w3.org/2000/svg">
<path fill-rule="evenodd" clip-rule="evenodd" d="M40.3386 44.6956H58.6632V39.6194H40.3386V44.6956ZM0 44.6956H28.1424V39.6194H0V44.6956ZM35.6934 14.3683C35.3658 13.7117 34.9182 13.384 34.2204 13.384C33.522 13.384 33.0744 13.7117 32.7468 14.3683V29.9547C33.0744 30.6107 33.522 30.939 34.2204 30.939C34.9182 30.939 35.3658 30.6107 35.6934 29.9547V14.3683ZM43.2228 11.8665V32.538C43.005 32.9484 42.7056 33.3588 42.3366 33.8099C41.967 34.261 41.4084 34.7535 40.71 35.3274C40.0116 35.902 39.108 36.3525 37.9578 36.7222C36.8076 37.0912 35.5758 37.2554 34.2198 37.2554C32.8644 37.2554 31.632 37.0912 30.5226 36.7222C29.4138 36.3525 28.5102 35.902 27.8118 35.3682C27.1134 34.835 26.5794 34.3431 26.2098 33.892C25.8402 33.4409 25.545 32.9897 25.3266 32.5793V11.8251C25.545 11.4148 25.7994 10.9642 26.169 10.5131C26.5386 10.0614 27.0732 9.56951 27.7716 9.03631C28.47 8.5031 29.3742 8.05198 30.4836 7.68293C31.5924 7.31388 32.826 7.14912 34.182 7.14912C35.5374 7.14912 36.8136 7.31388 37.9638 7.68293C39.114 8.05198 40.0242 8.5031 40.722 9.07705C41.4204 9.65159 41.967 10.1441 42.3366 10.5952C42.7056 11.0457 43.005 11.4561 43.2228 11.8665ZM41.5482 4.74192L38.2752 0H30.2058L26.9328 4.74192V5.07622H41.5482V4.74192ZM34.2402 39.3151C32.901 39.3151 31.8546 39.7752 31.1424 40.6942V43.6622C31.896 44.5399 32.9424 45 34.2402 45C35.5386 45 36.585 44.5399 37.3386 43.6622V40.6942C36.6264 39.7752 35.58 39.3151 34.2402 39.3151ZM45.3444 7.91179V13.4901H48.9342V36.6239H56.4102V13.4901H60V7.91179H45.3444ZM13.5192 7.91179H22.1196V36.6239H15.1296V22.0297H14.8896L12.2076 32.1821H9.912L7.23 22.0297H6.99V36.6239H0V7.91179H8.6004L10.9554 17.9055H11.1642L13.5192 7.91179Z" fill="#111820"/>
</svg>
