<svg width="46" height="46" viewBox="0 0 46 46" fill="none" xmlns="http://www.w3.org/2000/svg">
<path fill-rule="evenodd" clip-rule="evenodd" d="M7 34C6.448 34 6 33.553 6 33C6 32.448 6.448 32 7 32H39C39.552 32 40 32.448 40 33C40 33.553 39.552 34 39 34H7Z" fill="#fff"/>
<path fill-rule="evenodd" clip-rule="evenodd" d="M7 24C6.448 24 6 23.553 6 23C6 22.448 6.448 22 7 22H39C39.552 22 40 22.448 40 23C40 23.553 39.552 24 39 24H7Z" fill="#fff"/>
<path fill-rule="evenodd" clip-rule="evenodd" d="M7 14C6.448 14 6 13.553 6 13C6 12.448 6.448 12 7 12H26C26.552 12 27 12.448 27 13C27 13.553 26.552 14 26 14H7Z" fill="#fff"/>
</svg>
