<svg width="46" height="46" viewBox="0 0 46 46" fill="none" xmlns="http://www.w3.org/2000/svg">
<path fill-rule="evenodd" clip-rule="evenodd" d="M9.56498 36.435C9.95601 36.826 10.5889 36.8253 10.9792 36.435L23 24.4142L35.0208 36.435C35.4111 36.8253 36.044 36.826 36.435 36.435C36.8253 36.0447 36.8253 35.4111 36.435 35.0208L24.4142 23L36.435 10.9791C36.8254 10.5888 36.8261 9.95595 36.435 9.56492C36.0447 9.1746 35.4112 9.1746 35.0208 9.56492L23 21.5858L10.9792 9.56493C10.5888 9.1746 9.95528 9.1746 9.56496 9.56493C9.17393 9.95596 9.17463 10.5888 9.56496 10.9791L21.5858 23L9.56498 35.0208C9.17466 35.4111 9.17466 36.0447 9.56498 36.435Z" fill="#111820"/>
</svg>
