<svg width="46" height="46" viewBox="0 0 46 46" fill="none" xmlns="http://www.w3.org/2000/svg">
<path fill-rule="evenodd" clip-rule="evenodd" d="M23 9C15.268 9 9 15.268 9 23C9 30.732 15.268 37 23 37C30.732 37 37 30.732 37 23C37 15.268 30.732 9 23 9ZM7 23C7 14.1634 14.1634 7 23 7C31.8366 7 39 14.1634 39 23C39 31.8366 31.8366 39 23 39C14.1634 39 7 31.8366 7 23Z" fill="#fff"/>
<path fill-rule="evenodd" clip-rule="evenodd" d="M29.4477 25.1057C29.9416 25.3528 30.1416 25.9536 29.8945 26.4475C29.2141 27.8073 28.227 28.9546 27.0184 29.7603C25.8081 30.5672 24.4219 31 23.0003 31C21.5786 31 20.1924 30.5673 18.9821 29.7604C17.7734 28.9547 16.7864 27.8074 16.1059 26.4476C15.8588 25.9537 16.0588 25.353 16.5527 25.1058C17.0466 24.8587 17.6474 25.0587 17.8945 25.5526C18.4313 26.6253 19.1937 27.4978 20.0914 28.0963C20.9875 28.6936 21.9902 29 23.0002 29C24.0103 29 25.013 28.6936 25.909 28.0962C26.8067 27.4978 27.5692 26.6252 28.1059 25.5525C28.353 25.0586 28.9538 24.8586 29.4477 25.1057Z" fill="#fff"/>
<path d="M17 22C18.1046 22 19 21.1046 19 20C19 18.8954 18.1046 18 17 18C15.8954 18 15 18.8954 15 20C15 21.1046 15.8954 22 17 22Z" fill="#fff"/>
<path d="M28 22C29.1046 22 30 21.1046 30 20C30 18.8954 29.1046 18 28 18C26.8954 18 26 18.8954 26 20C26 21.1046 26.8954 22 28 22Z" fill="#fff"/>
</svg>
